<svg width="282" height="268" viewBox="0 0 282 268" fill="none" xmlns="http://www.w3.org/2000/svg">
<g clip-path="url(#clip0_31_1858)">
<path d="M121.371 46.6764C119.204 42.0611 115.308 37.6181 110.957 32.7557C107.216 28.5944 102.929 23.9503 98.7278 19.6913C94.0727 15.0128 88.9061 10.0353 83.8085 6.63847C71.6709 -1.49441 56.1252 -3.71299 46.1771 8.95476C40.6715 15.7427 38.4474 23.9733 35.9762 32.3936C33.7119 40.3598 31.4648 50.079 30.0568 57.775C25.4534 83.1335 25.8844 111.257 29.8786 136.42C31.4648 144.168 33.6429 154.467 42.068 156.91C52.3954 159.163 65.2342 149.059 73.6133 142.006C80.1132 136.357 86.751 129.482 92.9693 121.97C107.71 103.934 130.871 69.5174 121.411 46.7511L121.377 46.6764H121.371Z" fill="#B66000"/>
<path d="M107.118 51.4699C110.067 46.389 106.061 40.854 101.463 36.0432C97.4461 31.8877 93.1071 27.8126 88.4751 23.864C80.7741 17.26 68.9755 9.20186 58.9584 14.0528C50.3034 18.444 46.8495 29.3473 43.93 37.9342C41.0622 46.9695 39.1485 55.3897 38.068 65.6722C36.683 78.0124 36.2462 92.87 36.16 104.52C36.1485 111.142 36.1888 116.171 37.1887 118.907C39.3611 125.896 51.3896 113.992 54.5735 111.199C62.4871 103.629 69.5272 95.715 76.9063 87.1338C82.9579 80.0987 89.0268 72.5291 95.1244 65.4825C98.9001 60.9649 104.975 55.4357 107.095 51.5216L107.124 51.4641L107.118 51.4699Z" fill="#FFA547"/>
<path d="M245.61 99.3477C247.667 94.6749 248.46 88.8008 249.271 82.306C249.949 76.7308 250.644 70.4256 251.098 64.4366C251.575 57.8211 251.937 50.6366 251.162 44.5269C249.38 30.0774 240.874 16.6222 224.806 17.3521C216.105 17.5935 208.45 21.2835 200.502 24.9045C193.025 28.3876 184.243 33.0316 177.531 36.9917C155.416 50.0848 134.555 68.8106 118.245 88.3007C113.406 94.6231 107.153 102.98 110.802 110.998C115.814 120.303 131.842 123.534 142.647 125.304C151.146 126.568 160.658 127.126 170.382 126.953C193.588 126.407 234.679 121.51 245.575 99.4339L245.61 99.3592V99.3477Z" fill="#B66000"/>
<path d="M231.737 91.7147C237.455 90.548 238.886 83.7658 239.53 77.11C240.041 71.2589 240.294 65.2124 240.259 59.028C240.213 48.8892 238.805 34.3937 228.731 29.8244C219.95 26.0941 209.714 30.7152 201.548 34.1638C193.611 37.7791 187.41 41.0552 179.508 46.5844C168.698 54.108 156.784 64.2181 147.462 72.4947C142.181 77.4951 137.612 80.7655 136.94 84.6911C137.003 89.3352 150.014 90.5192 154.238 91.0825C164.853 92.1286 175.175 92.2665 186.197 92.232C195.237 92.2033 204.685 91.8297 213.76 91.8239C219.484 91.7205 227.421 92.7091 231.673 91.732L231.737 91.7147Z" fill="#FFA547"/>
<path d="M157.347 41.2276C127.176 37.7733 86.1477 51.1997 61.8091 76.2421C48.0048 89.68 39.1659 106.377 32.9362 123.488C25.9938 140.937 18.7295 159.766 7.6723 176.049C4.62064 180.607 2.20115 183.786 0.98853 186.096C-0.597645 188.838 -0.143631 190.942 1.4253 193.333C17.8158 219.714 59.2287 248.584 101.659 259.401C113.107 262.293 125.48 264.643 136.388 265.919C157.778 268.994 215.024 267.138 252.983 230.974C263.483 221.548 272.834 210.65 279.092 199.086C282.914 192.074 282.931 185.062 279.328 178.124C276.598 172.515 272.724 167.164 270.121 161.405C265.834 152.013 263.954 141.621 260.851 131.115C256.707 116.556 250.311 102.71 241.593 90.6858C221.369 62.4018 190.761 46.297 157.422 41.2391L157.342 41.2276H157.347Z" fill="#FE8B00"/>
<path d="M158.365 163.882C152.79 162.376 151.273 158.353 150.779 153.22C149.124 135.42 142.026 108.17 118.113 101.819C109.268 99.1809 99.1015 99.6523 90.9868 103.262C70.1424 112.648 61.0851 138.552 63.7459 160.324C64.3781 166.474 64.8953 172.319 59.6023 176.182C51.6657 182.004 41.1487 185.729 36.9591 196.477C32.7293 206.845 35.4189 219.185 41.5567 228.226C54.0277 245.671 78.6594 253.602 98.2625 260.063C131.026 269.925 176.221 271.621 208.289 259.2C230.628 250.832 275.316 225.175 269.27 196.747C266.885 184.274 254.679 177.234 251.294 165.595C248.897 156.761 250.564 147.685 249.311 138.477C248.725 133.517 247.57 128.569 245.754 123.953C243.104 117.257 239.116 111.05 233.311 106.722C219.858 96.8474 199.634 99.6752 190.243 114.05C184.318 122.712 181.433 133.793 182.071 144.254C182.129 145.191 182.215 146.11 182.324 146.995C182.881 153.605 185.669 158.899 182.973 162.273C179.071 166.181 163.462 165.451 158.445 163.905L158.37 163.882H158.365Z" fill="#FFE0AE"/>
<path d="M138.468 157.427C138.405 171.727 125.767 189.252 110.423 182.487C105.205 180.148 101.044 175.21 98.6645 169.877C92.3773 156.852 96.6588 137.345 109.015 130.074C125.9 120.78 139.497 141.903 138.468 157.301V157.427Z" fill="#634100"/>
<path d="M226.886 139.437C229.564 146.616 229.587 154.64 227.651 162.008C225.685 169.342 222.323 175.578 220.105 182.567C219.088 185.533 217.812 189.89 216.392 192.195C215.444 193.741 214.507 193.292 213.68 191.965C212.438 190.126 210.99 186.246 209.341 183.947C206.41 179.895 203.783 183.315 200.278 185.936C194.554 190.792 187.358 196.195 179.376 196.132C170.33 196.35 163.721 190.016 158.485 183.257C155.514 179.533 152.175 175.756 150.273 171.417C146.451 162.571 158.663 160.249 165.002 157.703C170.284 155.766 175.669 153.697 179.876 150.007C185.887 144.852 188.123 136.943 193.214 130.891C203.691 118.315 221.858 125.011 226.84 139.334L226.886 139.449V139.437Z" fill="#634100"/>
<path d="M130.308 199.097C127.572 197.954 125.428 199.029 125.595 202.454C126.084 209.012 131.75 215.455 137.56 219.243C147.566 225.623 162.071 228.577 173.594 225.456C175.979 224.778 178.272 223.83 180.456 222.657C184.352 220.766 193.818 213.122 190.766 211.558C187.893 211.035 184.669 212.616 181.709 213.426C177.646 214.76 173.537 216.059 169.134 216.358C160.761 217.151 151.462 213.725 144.474 208.702C139.146 205.092 135.399 201.282 130.388 199.126L130.313 199.097H130.308Z" fill="#634100"/>
<path d="M121.371 46.6764C119.204 42.0611 115.308 37.6181 110.957 32.7557C107.216 28.5944 102.929 23.9503 98.7278 19.6913C94.0727 15.0128 88.9061 10.0353 83.8085 6.63847C71.6709 -1.49441 56.1252 -3.71299 46.1771 8.95476C40.6715 15.7427 38.4474 23.9733 35.9762 32.3936C33.7119 40.3598 31.4648 50.079 30.0568 57.775C25.4534 83.1335 25.8844 111.257 29.8786 136.42C31.4648 144.168 33.6429 154.467 42.068 156.91C52.3954 159.163 65.2342 149.059 73.6133 142.006C80.1132 136.357 86.751 129.482 92.9693 121.97C107.71 103.934 130.871 69.5174 121.411 46.7511L121.377 46.6764H121.371Z" fill="#B66000"/>
<path d="M107.118 51.4699C110.067 46.389 106.061 40.854 101.463 36.0432C97.4461 31.8877 93.1071 27.8126 88.4751 23.864C80.7741 17.26 68.9755 9.20186 58.9584 14.0528C50.3034 18.444 46.8495 29.3473 43.93 37.9342C41.0622 46.9695 39.1485 55.3897 38.068 65.6722C36.683 78.0124 36.2462 92.87 36.16 104.52C36.1485 111.142 36.1888 116.171 37.1887 118.907C39.3611 125.896 51.3896 113.992 54.5735 111.199C62.4871 103.629 69.5272 95.715 76.9063 87.1338C82.9579 80.0987 89.0268 72.5291 95.1244 65.4825C98.9001 60.9649 104.975 55.4357 107.095 51.5216L107.124 51.4641L107.118 51.4699Z" fill="#FFA547"/>
<path d="M245.61 99.3477C247.667 94.6749 248.46 88.8008 249.271 82.306C249.949 76.7308 250.644 70.4256 251.098 64.4366C251.575 57.8211 251.937 50.6366 251.162 44.5269C249.38 30.0774 240.874 16.6222 224.806 17.3521C216.105 17.5935 208.45 21.2835 200.502 24.9045C193.025 28.3876 184.243 33.0316 177.531 36.9917C155.416 50.0848 134.555 68.8106 118.245 88.3007C113.406 94.6231 107.153 102.98 110.802 110.998C115.814 120.303 131.842 123.534 142.647 125.304C151.146 126.568 160.658 127.126 170.382 126.953C193.588 126.407 234.679 121.51 245.575 99.4339L245.61 99.3592V99.3477Z" fill="#B66000"/>
<path d="M231.737 91.7147C237.455 90.548 238.886 83.7658 239.53 77.11C240.041 71.2589 240.294 65.2124 240.259 59.028C240.213 48.8892 238.805 34.3937 228.731 29.8244C219.95 26.0941 209.714 30.7152 201.548 34.1638C193.611 37.7791 187.41 41.0552 179.508 46.5844C168.698 54.108 156.784 64.2181 147.462 72.4947C142.181 77.4951 137.612 80.7655 136.94 84.6911C137.003 89.3352 150.014 90.5192 154.238 91.0825C164.853 92.1286 175.175 92.2665 186.197 92.232C195.237 92.2033 204.685 91.8297 213.76 91.8239C219.484 91.7205 227.421 92.7091 231.673 91.732L231.737 91.7147Z" fill="#FFA547"/>
<path d="M157.347 41.2276C127.176 37.7733 86.1477 51.1997 61.8091 76.2421C48.0048 89.68 39.1659 106.377 32.9362 123.488C25.9938 140.937 18.7295 159.766 7.6723 176.049C4.62064 180.607 2.20115 183.786 0.98853 186.096C-0.597645 188.838 -0.143631 190.942 1.4253 193.333C17.8158 219.714 59.2287 248.584 101.659 259.401C113.107 262.293 125.48 264.643 136.388 265.919C157.778 268.994 215.024 267.138 252.983 230.974C263.483 221.548 272.834 210.65 279.092 199.086C282.914 192.074 282.931 185.062 279.328 178.124C276.598 172.515 272.724 167.164 270.121 161.405C265.834 152.013 263.954 141.621 260.851 131.115C256.707 116.556 250.311 102.71 241.593 90.6858C221.369 62.4018 190.761 46.297 157.422 41.2391L157.342 41.2276H157.347Z" fill="#FE8B00"/>
<path d="M158.365 163.882C152.79 162.376 151.273 158.353 150.779 153.22C149.124 135.42 142.026 108.17 118.113 101.819C109.268 99.1809 99.1015 99.6523 90.9868 103.262C70.1424 112.648 61.0851 138.552 63.7459 160.324C64.3781 166.474 64.8953 172.319 59.6023 176.182C51.6657 182.004 41.1487 185.729 36.9591 196.477C32.7293 206.845 35.4189 219.185 41.5567 228.226C54.0277 245.671 78.6594 253.602 98.2625 260.063C131.026 269.925 176.221 271.621 208.289 259.2C230.628 250.832 275.316 225.175 269.27 196.747C266.885 184.274 254.679 177.234 251.294 165.595C248.897 156.761 250.564 147.685 249.311 138.477C248.725 133.517 247.57 128.569 245.754 123.953C243.104 117.257 239.116 111.05 233.311 106.722C219.858 96.8474 199.634 99.6752 190.243 114.05C184.318 122.712 181.433 133.793 182.071 144.254C182.129 145.191 182.215 146.11 182.324 146.995C182.881 153.605 185.669 158.899 182.973 162.273C179.071 166.181 163.462 165.451 158.445 163.905L158.37 163.882H158.365Z" fill="#FFE0AE"/>
<path d="M138.468 157.427C138.405 171.727 125.767 189.252 110.423 182.487C105.205 180.148 101.044 175.21 98.6645 169.877C92.3773 156.852 96.6588 137.345 109.015 130.074C125.9 120.78 139.497 141.903 138.468 157.301V157.427Z" fill="#634100"/>
<path d="M121.865 197.781C118.94 197.287 117.101 198.822 118.038 202.115C120.003 208.391 126.98 213.38 133.497 215.754C144.693 219.697 159.485 219.289 170.002 213.639C172.175 212.438 174.192 210.995 176.054 209.357C179.422 206.633 186.904 197.04 183.577 196.212C180.663 196.356 177.876 198.626 175.175 200.086C171.52 202.305 167.813 204.5 163.594 205.788C155.618 208.46 145.784 207.23 137.842 203.925C131.836 201.621 127.325 198.753 121.952 197.793L121.871 197.781H121.865Z" fill="#634100"/>
<path d="M231.277 158.767C231.214 173.067 218.576 190.591 203.232 183.826C198.013 181.487 193.852 176.55 191.473 171.216C185.186 158.192 189.467 138.684 201.823 131.414C218.708 122.12 232.306 143.242 231.277 158.64V158.767Z" fill="#634100"/>
<path d="M184.14 198.661C180.68 200.23 176.6 201.632 175.175 200.086C173.399 198.166 177.772 193.907 176.203 189.487C174.491 184.659 166.761 182.653 161.181 181.205C156.077 179.883 152.623 179.958 149.422 176.791C148.738 176.113 147.313 174.676 146.555 172.388C145.072 167.922 147.043 163.008 149.549 160.192C153.853 155.347 160.698 155.622 167.698 155.898C172.933 156.105 180.686 156.726 185.651 161.497C193.065 168.624 193.036 184.131 184.14 198.666V198.661Z" fill="#634100"/>
</g>
<defs>
<clipPath id="clip0_31_1858">
<rect width="282" height="268" fill="white"/>
</clipPath>
</defs>
</svg>
