<svg width="182" height="57" viewBox="0 0 182 57" fill="none" xmlns="http://www.w3.org/2000/svg">
<path d="M10.5063 15.041H13.5995C15.9461 15.041 16.8527 14.0843 16.8527 12.0116C16.8527 9.88561 16.0527 9.08839 13.6528 9.08839H10.5063V15.041ZM14.8261 38.2138H1.81327C0.586645 38.2138 0 37.6291 0 36.4067V2.39168C0 1.16927 0.586645 0.584635 1.81327 0.584635H13.9728C22.6125 0.584635 27.3057 2.65742 27.3057 10.2577C27.3057 14.6158 25.1724 16.9544 22.7725 18.0173C25.8657 19.0803 28.2656 22.0035 28.2656 26.9463C28.2656 35.1843 22.8792 38.2138 14.8261 38.2138ZM10.5063 29.71H14.1328C16.8527 29.71 17.6527 28.7533 17.6527 26.3085C17.6527 23.9168 16.6927 22.907 14.0795 22.907H10.5063V29.71Z" fill="white"/>
<path d="M51.6027 23.5448H41.523V28.9659H52.5626C53.7893 28.9659 54.3759 29.5505 54.3759 30.773V36.4067C54.3759 37.6291 53.7893 38.2138 52.5626 38.2138H32.7767C31.5501 38.2138 30.9634 37.6291 30.9634 36.4067V2.39168C30.9634 1.16927 31.5501 0.584635 32.7767 0.584635H52.296C53.5226 0.584635 54.1092 1.16927 54.1092 2.39168V8.02542C54.1092 9.24784 53.5226 9.83247 52.296 9.83247H41.523V14.669H51.6027C52.776 14.669 53.4159 15.3068 53.4159 16.476V21.7377C53.4159 22.907 52.776 23.5448 51.6027 23.5448Z" fill="white"/>
<path d="M67.9591 2.39168V28.5939H77.1855C78.4121 28.5939 78.9987 29.1785 78.9987 30.4009V36.4067C78.9987 37.6291 78.4121 38.2138 77.1855 38.2138H59.0528C57.8262 38.2138 57.2395 37.6291 57.2395 36.4067V2.39168C57.2395 1.16927 57.8262 0.584635 59.0528 0.584635H66.1459C67.3725 0.584635 67.9591 1.16927 67.9591 2.39168Z" fill="white"/>
<path d="M92.5686 2.39168V28.5939H101.795C103.022 28.5939 103.608 29.1785 103.608 30.4009V36.4067C103.608 37.6291 103.022 38.2138 101.795 38.2138H83.6623C82.4357 38.2138 81.849 37.6291 81.849 36.4067V2.39168C81.849 1.16927 82.4357 0.584635 83.6623 0.584635H90.7554C91.982 0.584635 92.5686 1.16927 92.5686 2.39168Z" fill="white"/>
<path d="M106.672 36.4067V2.39168C106.672 1.16927 107.259 0.584635 108.485 0.584635H115.578C116.805 0.584635 117.391 1.16927 117.391 2.39168V36.4067C117.391 37.6291 116.805 38.2138 115.578 38.2138H108.485C107.259 38.2138 106.672 37.6291 106.672 36.4067Z" fill="white"/>
<path d="M149.758 2.39168V36.4067C149.758 37.6291 149.172 38.2138 147.945 38.2138H141.492C140.212 38.2138 139.625 37.8417 139.199 36.885L131.519 20.8874V36.4067C131.519 37.6291 130.932 38.2138 129.706 38.2138H122.986C121.759 38.2138 121.173 37.6291 121.173 36.4067V2.39168C121.173 1.16927 121.759 0.584635 122.986 0.584635H129.386C130.666 0.584635 131.252 0.956673 131.679 1.91335L139.412 17.911V2.39168C139.412 1.16927 139.999 0.584635 141.225 0.584635H147.945C149.172 0.584635 149.758 1.16927 149.758 2.39168Z" fill="white"/>
<path d="M169.707 14.6158H179.68C180.853 14.6158 181.44 15.2536 181.44 16.4229V34.2276C181.44 35.3969 180.853 36.0878 179.946 36.6193C177.813 37.8417 173.653 38.7984 168.8 38.7984C158.614 38.7984 152.694 34.3871 152.694 19.2929C152.694 4.41132 158.56 0 169.867 0C174.133 0 177.173 0.903525 179.04 1.8602C180.16 2.39168 180.586 2.87002 180.373 4.14558L179.413 9.08839C179.2 10.364 178.293 10.5765 176.906 10.2045C175.893 9.88561 173.973 9.40728 171.467 9.40728C165.333 9.40728 163.574 11.3206 163.574 19.2929C163.574 27.5841 165.547 29.6037 170.187 29.6037C170.88 29.6037 171.627 29.5505 172.107 29.3911V22.7475H169.707C168.533 22.7475 167.947 22.1098 167.947 20.9405V16.4229C167.947 15.2536 168.533 14.6158 169.707 14.6158Z" fill="white"/>
<path d="M42.3938 53V42.0909H46.5699C47.3583 42.0909 48.0134 42.2152 48.5355 42.4638C49.061 42.7088 49.4534 43.0444 49.7127 43.4705C49.9754 43.8967 50.1068 44.3796 50.1068 44.9194C50.1068 45.3633 50.0216 45.7433 49.8512 46.0593C49.6807 46.3718 49.4517 46.6257 49.164 46.821C48.8764 47.0163 48.555 47.1566 48.1999 47.2418V47.3484C48.5869 47.3697 48.958 47.4886 49.3132 47.7053C49.6718 47.9183 49.9648 48.2202 50.1921 48.6108C50.4193 49.0014 50.533 49.4737 50.533 50.0277C50.533 50.5923 50.3963 51.1001 50.1228 51.5511C49.8494 51.9986 49.4374 52.3519 48.887 52.6111C48.3366 52.8704 47.6441 53 46.8096 53H42.3938ZM44.37 51.3487H46.4953C47.2127 51.3487 47.7293 51.212 48.0454 50.9386C48.365 50.6616 48.5248 50.3065 48.5248 49.8732C48.5248 49.5501 48.4449 49.2589 48.2851 48.9996C48.1253 48.7369 47.898 48.5309 47.6033 48.3817C47.3085 48.229 46.957 48.1527 46.5486 48.1527H44.37V51.3487ZM44.37 46.7305H46.3249C46.6658 46.7305 46.973 46.6683 47.2464 46.544C47.5198 46.4162 47.7347 46.2369 47.8909 46.006C48.0507 45.7717 48.1306 45.4947 48.1306 45.1751C48.1306 44.7525 47.9815 44.4045 47.6832 44.131C47.3884 43.8576 46.9499 43.7209 46.3675 43.7209H44.37V46.7305Z" fill="white"/>
<path d="M55.4891 53.1598C54.6688 53.1598 53.9603 52.9893 53.3637 52.6484C52.7707 52.304 52.3144 51.8175 51.9948 51.1889C51.6752 50.5568 51.5154 49.8129 51.5154 48.957C51.5154 48.1154 51.6752 47.3768 51.9948 46.7411C52.3179 46.1019 52.7689 45.6048 53.3478 45.2496C53.9266 44.891 54.6066 44.7116 55.3879 44.7116C55.8922 44.7116 56.368 44.7933 56.8154 44.9567C57.2664 45.1165 57.6642 45.3651 58.0086 45.7024C58.3566 46.0398 58.6301 46.4695 58.8289 46.9915C59.0278 47.5099 59.1272 48.1278 59.1272 48.8452V49.4364H52.4209V48.1367H57.2789C57.2753 47.7674 57.1954 47.4389 57.0392 47.1513C56.8829 46.8601 56.6645 46.631 56.384 46.4641C56.107 46.2972 55.7838 46.2138 55.4145 46.2138C55.0203 46.2138 54.6741 46.3097 54.3758 46.5014C54.0775 46.6896 53.8449 46.9382 53.678 47.2472C53.5147 47.5526 53.4312 47.8881 53.4277 48.2539V49.3885C53.4277 49.8643 53.5147 50.2727 53.6887 50.6136C53.8627 50.951 54.1059 51.2102 54.4184 51.3913C54.7309 51.5689 55.0967 51.6577 55.5157 51.6577C55.7963 51.6577 56.0502 51.6186 56.2775 51.5405C56.5047 51.4588 56.7018 51.3398 56.8687 51.1836C57.0356 51.0273 57.1617 50.8338 57.2469 50.603L59.0473 50.8054C58.9337 51.2812 58.7171 51.6967 58.3975 52.0518C58.0814 52.4034 57.6766 52.6768 57.183 52.8722C56.6894 53.0639 56.1248 53.1598 55.4891 53.1598Z" fill="white"/>
<path d="M62.3868 42.0909V53H60.4585V42.0909H62.3868Z" fill="white"/>
<path d="M66.4241 53.1651C65.9056 53.1651 65.4386 53.0728 65.0232 52.8881C64.6112 52.6999 64.2845 52.4229 64.043 52.0572C63.8051 51.6914 63.6861 51.2404 63.6861 50.7042C63.6861 50.2425 63.7714 49.8608 63.9418 49.5589C64.1123 49.2571 64.3449 49.0156 64.6396 48.8345C64.9344 48.6534 65.2664 48.5167 65.6357 48.4244C66.0086 48.3285 66.3939 48.2592 66.7916 48.2166C67.271 48.1669 67.6599 48.1225 67.9582 48.0835C68.2565 48.0408 68.4731 47.9769 68.608 47.8917C68.7465 47.8029 68.8158 47.6662 68.8158 47.4815V47.4496C68.8158 47.0483 68.6968 46.7376 68.4589 46.5174C68.221 46.2972 67.8783 46.1871 67.4308 46.1871C66.9585 46.1871 66.5839 46.2901 66.3069 46.4961C66.0334 46.7021 65.8488 46.9453 65.7529 47.2259L63.9525 46.9702C64.0945 46.473 64.3289 46.0575 64.6556 45.7237C64.9823 45.3864 65.3818 45.1342 65.8541 44.9673C66.3264 44.7969 66.8484 44.7116 67.4202 44.7116C67.8143 44.7116 68.2067 44.7578 68.5974 44.8501C68.988 44.9425 69.3449 45.0952 69.668 45.3082C69.9912 45.5178 70.2504 45.8036 70.4457 46.1658C70.6446 46.5281 70.744 46.9808 70.744 47.5241V53H68.8903V51.8761H68.8264C68.7092 52.1033 68.5441 52.3164 68.331 52.5153C68.1215 52.7106 67.857 52.8686 67.5374 52.9893C67.2213 53.1065 66.8502 53.1651 66.4241 53.1651ZM66.9248 51.7482C67.3119 51.7482 67.6474 51.6719 67.9315 51.5192C68.2156 51.3629 68.434 51.157 68.5867 50.9013C68.743 50.6456 68.8211 50.3668 68.8211 50.065V49.1009C68.7607 49.1506 68.6577 49.1967 68.5121 49.2393C68.3701 49.282 68.2103 49.3192 68.0327 49.3512C67.8552 49.3832 67.6794 49.4116 67.5054 49.4364C67.3314 49.4613 67.1805 49.4826 67.0526 49.5004C66.765 49.5394 66.5075 49.6033 66.2803 49.6921C66.053 49.7809 65.8736 49.9052 65.7423 50.065C65.6109 50.2212 65.5452 50.4237 65.5452 50.6722C65.5452 51.0273 65.6748 51.2955 65.934 51.4766C66.1933 51.6577 66.5235 51.7482 66.9248 51.7482Z" fill="white"/>
<path d="M72.3829 44.8182H74.3112V53.4688C74.3112 54.0582 74.1994 54.5447 73.9756 54.9283C73.7519 55.3118 73.4288 55.5977 73.0062 55.7859C72.5836 55.9741 72.0705 56.0682 71.4668 56.0682C71.3957 56.0682 71.33 56.0664 71.2697 56.0629C71.2093 56.0629 71.1436 56.0611 71.0726 56.0575V54.4861C71.1259 54.4897 71.1738 54.4915 71.2164 54.4915C71.259 54.495 71.3034 54.4968 71.3496 54.4968C71.7189 54.4968 71.9834 54.4063 72.1432 54.2251C72.3031 54.0476 72.3829 53.7866 72.3829 53.4421V44.8182ZM73.3418 43.657C73.0328 43.657 72.7683 43.5558 72.5481 43.3533C72.3315 43.1474 72.2232 42.9006 72.2232 42.6129C72.2232 42.3217 72.3315 42.0749 72.5481 41.8725C72.7683 41.6665 73.0328 41.5636 73.3418 41.5636C73.6472 41.5636 73.9082 41.6665 74.1248 41.8725C74.345 42.0749 74.455 42.3217 74.455 42.6129C74.455 42.9006 74.345 43.1474 74.1248 43.3533C73.9082 43.5558 73.6472 43.657 73.3418 43.657Z" fill="white"/>
<path d="M78.3485 53.1651C77.83 53.1651 77.363 53.0728 76.9476 52.8881C76.5356 52.6999 76.2089 52.4229 75.9675 52.0572C75.7295 51.6914 75.6106 51.2404 75.6106 50.7042C75.6106 50.2425 75.6958 49.8608 75.8662 49.5589C76.0367 49.2571 76.2693 49.0156 76.564 48.8345C76.8588 48.6534 77.1908 48.5167 77.5601 48.4244C77.933 48.3285 78.3183 48.2592 78.716 48.2166C79.1954 48.1669 79.5843 48.1225 79.8826 48.0835C80.1809 48.0408 80.3975 47.9769 80.5324 47.8917C80.6709 47.8029 80.7402 47.6662 80.7402 47.4815V47.4496C80.7402 47.0483 80.6212 46.7376 80.3833 46.5174C80.1454 46.2972 79.8027 46.1871 79.3552 46.1871C78.8829 46.1871 78.5083 46.2901 78.2313 46.4961C77.9579 46.7021 77.7732 46.9453 77.6773 47.2259L75.8769 46.9702C76.0189 46.473 76.2533 46.0575 76.58 45.7237C76.9067 45.3864 77.3062 45.1342 77.7785 44.9673C78.2508 44.7969 78.7728 44.7116 79.3446 44.7116C79.7388 44.7116 80.1312 44.7578 80.5218 44.8501C80.9124 44.9425 81.2693 45.0952 81.5925 45.3082C81.9156 45.5178 82.1748 45.8036 82.3702 46.1658C82.569 46.5281 82.6684 46.9808 82.6684 47.5241V53H80.8148V51.8761H80.7508C80.6336 52.1033 80.4685 52.3164 80.2554 52.5153C80.0459 52.7106 79.7814 52.8686 79.4618 52.9893C79.1457 53.1065 78.7746 53.1651 78.3485 53.1651ZM78.8492 51.7482C79.2363 51.7482 79.5719 51.6719 79.8559 51.5192C80.14 51.3629 80.3584 51.157 80.5111 50.9013C80.6674 50.6456 80.7455 50.3668 80.7455 50.065V49.1009C80.6851 49.1506 80.5822 49.1967 80.4366 49.2393C80.2945 49.282 80.1347 49.3192 79.9572 49.3512C79.7796 49.3832 79.6038 49.4116 79.4298 49.4364C79.2558 49.4613 79.1049 49.4826 78.977 49.5004C78.6894 49.5394 78.4319 49.6033 78.2047 49.6921C77.9774 49.7809 77.7981 49.9052 77.6667 50.065C77.5353 50.2212 77.4696 50.4237 77.4696 50.6722C77.4696 51.0273 77.5992 51.2955 77.8584 51.4766C78.1177 51.6577 78.4479 51.7482 78.8492 51.7482Z" fill="white"/>
<path d="M84.3074 53V44.8182H86.177V46.1818H86.2623C86.4114 45.7095 86.6671 45.3455 87.0293 45.0898C87.3951 44.8306 87.8123 44.701 88.2811 44.701C88.3876 44.701 88.5066 44.7063 88.638 44.717C88.7729 44.7241 88.8848 44.7365 88.9736 44.7543V46.5281C88.8919 46.4996 88.7623 46.4748 88.5847 46.4535C88.4107 46.4286 88.242 46.4162 88.0787 46.4162C87.7271 46.4162 87.4111 46.4925 87.1305 46.6452C86.8535 46.7944 86.6351 47.0021 86.4753 47.2685C86.3155 47.5348 86.2356 47.842 86.2356 48.19V53H84.3074Z" fill="white"/>
<path d="M95.4368 42.0909V53H93.4606V42.0909H95.4368Z" fill="white"/>
<path d="M99.1198 48.206V53H97.1915V44.8182H99.0346V46.2085H99.1305C99.3187 45.7504 99.6187 45.3864 100.031 45.1165C100.446 44.8466 100.959 44.7116 101.57 44.7116C102.135 44.7116 102.627 44.8324 103.046 45.0739C103.468 45.3153 103.795 45.6651 104.026 46.1232C104.26 46.5813 104.375 47.1371 104.372 47.7905V53H102.444V48.0888C102.444 47.5419 102.302 47.114 102.018 46.805C101.737 46.4961 101.348 46.3416 100.851 46.3416C100.514 46.3416 100.214 46.4162 99.9508 46.5653C99.6915 46.7109 99.4874 46.9222 99.3382 47.1992C99.1926 47.4762 99.1198 47.8118 99.1198 48.206Z" fill="white"/>
<path d="M109.59 56.2386C108.898 56.2386 108.303 56.1445 107.806 55.9563C107.309 55.7717 106.909 55.5231 106.607 55.2106C106.306 54.8981 106.096 54.5518 105.979 54.1719L107.715 53.7511C107.794 53.9109 107.907 54.0689 108.056 54.2251C108.205 54.3849 108.406 54.5163 108.658 54.6193C108.914 54.7259 109.235 54.7791 109.622 54.7791C110.169 54.7791 110.622 54.646 110.981 54.3796C111.339 54.1168 111.519 53.6836 111.519 53.0799V51.5298H111.423C111.323 51.7287 111.178 51.9329 110.986 52.1424C110.798 52.3519 110.547 52.5277 110.235 52.6697C109.926 52.8118 109.537 52.8828 109.068 52.8828C108.44 52.8828 107.87 52.7354 107.359 52.4407C106.851 52.1424 106.446 51.6985 106.144 51.109C105.846 50.516 105.697 49.7738 105.697 48.8825C105.697 47.984 105.846 47.2259 106.144 46.608C106.446 45.9865 106.852 45.516 107.364 45.1964C107.875 44.8732 108.445 44.7116 109.074 44.7116C109.553 44.7116 109.947 44.7933 110.256 44.9567C110.569 45.1165 110.817 45.31 111.002 45.5373C111.187 45.761 111.327 45.9723 111.423 46.1712H111.529V44.8182H113.431V53.1332C113.431 53.8327 113.264 54.4116 112.93 54.8697C112.596 55.3278 112.14 55.6705 111.561 55.8977C110.982 56.125 110.325 56.2386 109.59 56.2386ZM109.606 51.37C110.015 51.37 110.363 51.2706 110.65 51.0717C110.938 50.8729 111.156 50.587 111.306 50.2141C111.455 49.8413 111.529 49.3938 111.529 48.8718C111.529 48.3569 111.455 47.9059 111.306 47.5188C111.16 47.1317 110.943 46.8317 110.656 46.6186C110.372 46.402 110.022 46.2937 109.606 46.2937C109.177 46.2937 108.818 46.4055 108.53 46.6293C108.243 46.853 108.026 47.1602 107.881 47.5508C107.735 47.9379 107.662 48.3782 107.662 48.8718C107.662 49.3725 107.735 49.8111 107.881 50.1875C108.03 50.5604 108.248 50.8516 108.536 51.0611C108.827 51.267 109.184 51.37 109.606 51.37Z" fill="white"/>
<path d="M118.665 56.2386C117.973 56.2386 117.378 56.1445 116.881 55.9563C116.384 55.7717 115.984 55.5231 115.682 55.2106C115.381 54.8981 115.171 54.5518 115.054 54.1719L116.79 53.7511C116.869 53.9109 116.982 54.0689 117.131 54.2251C117.28 54.3849 117.481 54.5163 117.733 54.6193C117.989 54.7259 118.31 54.7791 118.697 54.7791C119.244 54.7791 119.697 54.646 120.056 54.3796C120.414 54.1168 120.594 53.6836 120.594 53.0799V51.5298H120.498C120.398 51.7287 120.253 51.9329 120.061 52.1424C119.873 52.3519 119.622 52.5277 119.31 52.6697C119.001 52.8118 118.612 52.8828 118.143 52.8828C117.515 52.8828 116.945 52.7354 116.434 52.4407C115.926 52.1424 115.521 51.6985 115.219 51.109C114.921 50.516 114.772 49.7738 114.772 48.8825C114.772 47.984 114.921 47.2259 115.219 46.608C115.521 45.9865 115.927 45.516 116.439 45.1964C116.95 44.8732 117.52 44.7116 118.149 44.7116C118.628 44.7116 119.022 44.7933 119.331 44.9567C119.644 45.1165 119.892 45.31 120.077 45.5373C120.262 45.761 120.402 45.9723 120.498 46.1712H120.604V44.8182H122.506V53.1332C122.506 53.8327 122.339 54.4116 122.005 54.8697C121.671 55.3278 121.215 55.6705 120.636 55.8977C120.057 56.125 119.4 56.2386 118.665 56.2386ZM118.681 51.37C119.09 51.37 119.438 51.2706 119.725 51.0717C120.013 50.8729 120.231 50.587 120.381 50.2141C120.53 49.8413 120.604 49.3938 120.604 48.8718C120.604 48.3569 120.53 47.9059 120.381 47.5188C120.235 47.1317 120.018 46.8317 119.731 46.6186C119.447 46.402 119.097 46.2937 118.681 46.2937C118.252 46.2937 117.893 46.4055 117.605 46.6293C117.318 46.853 117.101 47.1602 116.956 47.5508C116.81 47.9379 116.737 48.3782 116.737 48.8718C116.737 49.3725 116.81 49.8111 116.956 50.1875C117.105 50.5604 117.323 50.8516 117.611 51.0611C117.902 51.267 118.259 51.37 118.681 51.37Z" fill="white"/>
<path d="M124.182 53V44.8182H126.052V46.1818H126.137C126.286 45.7095 126.542 45.3455 126.904 45.0898C127.27 44.8306 127.687 44.701 128.156 44.701C128.262 44.701 128.381 44.7063 128.513 44.717C128.648 44.7241 128.76 44.7365 128.848 44.7543V46.5281C128.767 46.4996 128.637 46.4748 128.46 46.4535C128.286 46.4286 128.117 46.4162 127.953 46.4162C127.602 46.4162 127.286 46.4925 127.005 46.6452C126.728 46.7944 126.51 47.0021 126.35 47.2685C126.19 47.5348 126.11 47.842 126.11 48.19V53H124.182Z" fill="white"/>
<path d="M129.829 53V44.8182H131.758V53H129.829ZM130.799 43.657C130.493 43.657 130.231 43.5558 130.011 43.3533C129.79 43.1474 129.68 42.9006 129.68 42.6129C129.68 42.3217 129.79 42.0749 130.011 41.8725C130.231 41.6665 130.493 41.5636 130.799 41.5636C131.108 41.5636 131.371 41.6665 131.587 41.8725C131.807 42.0749 131.918 42.3217 131.918 42.6129C131.918 42.9006 131.807 43.1474 131.587 43.3533C131.371 43.5558 131.108 43.657 130.799 43.657Z" fill="white"/>
<path d="M139.907 46.9808L138.149 47.1726C138.1 46.995 138.013 46.8281 137.888 46.6719C137.768 46.5156 137.604 46.3896 137.398 46.2937C137.192 46.1978 136.94 46.1499 136.642 46.1499C136.241 46.1499 135.903 46.2369 135.63 46.4109C135.36 46.5849 135.227 46.8104 135.23 47.0874C135.227 47.3253 135.314 47.5188 135.491 47.668C135.672 47.8171 135.971 47.9396 136.386 48.0355L137.782 48.3338C138.556 48.5007 139.131 48.7653 139.508 49.1275C139.888 49.4897 140.079 49.9638 140.083 50.5497C140.079 51.0646 139.928 51.5192 139.63 51.9134C139.335 52.304 138.925 52.6094 138.4 52.8295C137.874 53.0497 137.27 53.1598 136.589 53.1598C135.587 53.1598 134.781 52.9503 134.17 52.5312C133.56 52.1087 133.196 51.521 133.078 50.7681L134.959 50.587C135.044 50.9563 135.225 51.2351 135.502 51.4233C135.779 51.6115 136.139 51.7056 136.583 51.7056C137.041 51.7056 137.409 51.6115 137.686 51.4233C137.966 51.2351 138.107 51.0025 138.107 50.7255C138.107 50.4911 138.016 50.2976 137.835 50.1449C137.658 49.9922 137.381 49.875 137.004 49.7933L135.609 49.5004C134.824 49.337 134.243 49.0618 133.867 48.6747C133.49 48.2841 133.304 47.7905 133.307 47.1939C133.304 46.6896 133.441 46.2528 133.718 45.8835C133.998 45.5107 134.387 45.223 134.884 45.0206C135.385 44.8146 135.962 44.7116 136.615 44.7116C137.574 44.7116 138.329 44.9158 138.879 45.3242C139.433 45.7326 139.776 46.2848 139.907 46.9808Z" fill="white"/>
</svg>
