<svg width="190" height="138" viewBox="0 0 190 138" fill="none" xmlns="http://www.w3.org/2000/svg">
<path d="M14.4566 13.071H5.84592C5.84592 13.071 0.58329 10.2827 0.58329 26.0828V112.983C0.58329 112.983 0.120844 119.489 10.2946 119.489C20.4684 119.489 45.4405 121.813 45.4405 121.813C45.4405 121.813 77.8116 128.783 82.4361 132.501C87.0605 136.219 89.3728 137.613 91.685 137.613H98.7697C98.7697 137.613 110.183 128.783 124.519 126.46C138.854 124.136 138.854 121.348 165.214 119.954H182.787C182.787 119.954 188.798 119.954 188.798 109.73C188.798 99.5068 189.261 17.7181 189.261 17.7181C189.261 17.7181 191.111 13.071 180.937 13.071C150.189 13.071 130.373 0.53316 111.584 13.071C103.505 18.4616 101.077 24.4424 93.9972 24.224C86.4316 23.9916 81.9089 16.9374 77.7423 13.071C69.8807 5.77507 53.3437 0.602866 14.4566 13.071Z" fill="#FFB700"/>
<path d="M93.5348 24.2249C93.5348 24.2249 72.2623 4.70713 49.14 2.38359C26.0178 0.0600432 17.2313 0.524752 17.2313 0.524752C17.2313 0.524752 12.1444 -0.869374 11.682 14.9307C11.2195 30.7308 11.2195 96.2547 11.2195 96.2547C11.2195 96.2547 10.7571 105.084 19.5435 105.084C28.33 105.084 49.6025 107.872 49.6025 107.872C49.6025 107.872 82.4361 117.167 92.6099 128.784C93.0723 128.784 93.5348 24.2249 93.5348 24.2249Z" fill="#FFD429"/>
<path d="M95.1211 24.1267C95.1211 24.1267 116.394 4.60898 139.516 2.28544C162.638 -0.0381014 171.425 0.426607 171.425 0.426607C171.425 0.426607 176.511 -0.967519 176.974 14.8326C177.436 30.6327 177.436 96.1566 177.436 96.1566C177.436 96.1566 177.899 104.986 169.112 104.986C160.326 104.986 139.053 107.774 139.053 107.774C139.053 107.774 106.22 117.068 96.046 128.686C95.5835 128.686 95.1211 24.1267 95.1211 24.1267Z" fill="#FFD429"/>
<path d="M96.7734 25.386C96.7734 23.9744 95.6347 22.8301 94.23 22.8301C92.8253 22.8301 91.6865 23.9744 91.6865 25.386V127.622C91.6865 129.033 92.8253 130.178 94.23 130.178C95.6347 130.178 96.7734 129.033 96.7734 127.622V25.386Z" fill="#B58531"/>
</svg>
