<svg width="193" height="170" viewBox="0 0 193 170" fill="none" xmlns="http://www.w3.org/2000/svg">
<path d="M18.4536 93.0402V169.855L166.476 169.572V81.6585C154.24 63.9973 142 46.336 129.764 28.6747C119.09 21.8731 108.412 15.0677 97.7376 8.26611C92.7892 9.44353 87.8447 10.621 82.8962 11.7984L38.3722 45.9435L18.4536 93.0402Z" fill="#FF9E91"/>
<path d="M144.41 114.038C144.41 85.318 121.241 62.0356 92.6603 62.0356C64.0799 62.0356 40.9109 85.318 40.9109 114.038C40.9109 142.759 64.0799 166.041 92.6603 166.041C121.241 166.041 144.41 142.759 144.41 114.038Z" fill="#672947"/>
<path d="M54.3733 10.1069V23.9612L21.1755 48.9618V19.75C21.1755 19.75 22.6128 10.1069 31.4629 10.1069H54.3733Z" fill="#FC7F50"/>
<path d="M54.3855 15.7231V29.5774L21.1877 54.578V25.3662C21.1877 25.3662 22.625 15.7231 31.4751 15.7231H54.3855Z" fill="#E76343"/>
<path d="M33.7401 143.19L66.4965 169.965H22.0116C22.0116 169.965 1.41725 168.646 0.108873 157.237C-1.19951 145.824 9.71668 151.53 9.71668 151.53C9.71668 151.53 -2.94922 133.096 15.3954 129.147C15.8329 129.587 21.5116 129.147 33.7401 143.19Z" fill="#62A79B"/>
<path d="M154.369 133.466C153.557 135.228 152.35 137.81 150.854 140.923C146.69 149.593 145.585 151.331 144.605 152.697C142.863 155.13 141.074 156.838 137.575 160.154C134.853 162.736 130.99 166.182 126.018 169.966H170.503C170.503 169.966 191.097 168.651 192.406 157.238C193.714 145.825 182.798 151.531 182.798 151.531C183.075 151.19 189.215 143.364 185.844 134.478C183.524 128.364 178.224 125.773 177.021 125.22C176.076 124.843 175.158 124.592 174.288 124.435C164.809 122.72 156.408 131.28 154.369 133.462V133.466Z" fill="#62A79B"/>
<path d="M18.4536 85.0145V100.046L92.465 33.3062L166.476 93.433V65.175L105.549 16.9008L92.5158 15.5703L65.7115 24.7503L18.4536 85.0145Z" fill="#EE7970"/>
<g filter="url(#filter0_d_143_4788)">
<path d="M95.3937 0.0243233C99.893 0.291205 103.139 2.26927 113.36 10.2286C125.244 19.4831 133.895 26.9637 134.059 27.105C151.517 42.1955 143.769 35.343 155.931 45.9437C162.125 51.3441 170.522 58.6912 180.536 67.5297C183.829 71.3916 184.735 76.4584 182.88 80.4813C181.235 84.041 177.56 86.4979 173.897 86.7608C173.897 86.7608 169.628 87.067 155.54 74.5942L93.0504 19.648L16.5003 88.7232C16.5003 88.7232 11.423 91.078 3.6118 86.3684C-4.19943 81.6587 9.47022 67.1372 9.47022 67.1372C17.2463 58.7383 25.9441 50.0254 35.6378 41.234C50.5221 27.7329 65.0901 16.4611 78.5996 7.08884C81.6694 4.2905 87.8168 -0.423096 95.3937 0.0243233Z" fill="#6BC7BF"/>
</g>
<path d="M74.6944 76.5574C74.6944 76.5574 78.9906 78.1273 82.8962 88.7241C82.8962 88.7241 100.081 88.7241 103.987 90.6865C103.987 90.6865 113.36 76.9499 121.952 78.5198C122.343 78.5198 126.639 81.2671 125.858 95.0037C125.858 95.3961 125.858 105.993 123.124 110.31C123.124 110.703 125.467 114.235 125.467 114.235C128.404 113.403 133.681 112.418 139.528 114.235C140.973 114.682 143.347 115.444 145.777 117.375C145.777 117.375 150.124 120.652 152.026 127.186C155.232 138.207 144.222 152.952 142.652 155.052C140.59 157.811 138.622 159.911 137.184 161.332C119.433 170.021 104.057 167.764 100.249 160.696C97.3392 155.295 101.409 147.501 103.205 144.455C103.205 144.455 73.1322 149.95 62.1965 139.746C59.9195 138.58 53.9595 135.13 50.8702 127.971C49.4017 124.569 47.5699 120.322 49.3079 116.59C51.167 112.598 58.7868 105.585 59.4625 104.815C59.5445 104.721 59.7906 104.443 59.8531 104.031C59.8765 103.866 59.8648 103.728 59.8531 103.638C59.2907 100.891 58.8884 97.2054 59.4157 92.9432C60.6615 82.8252 66.3247 76.0786 68.836 73.4177C68.836 73.4177 71.5699 72.2402 74.6944 76.5574Z" fill="#FF9244"/>
<path d="M49.6986 115.805C49.2183 116.833 48.6793 118.309 48.527 120.122C47.6248 130.841 61.4272 139.436 62.5872 140.139C70.1562 144.727 79.6899 145.064 98.7532 145.739C99.1125 145.751 99.8623 145.633 100.862 145.633C101.643 145.633 107.463 142.497 107.463 142.497L115.704 135.821L86.0209 140.527L74.304 138.176L67.2309 135.982L62.1966 133.466L59.865 131.276L55.7445 126.696L53.6667 124.447L51.6554 120.511L49.6986 115.801V115.805Z" fill="#AF6736"/>
<path d="M125.076 123.261C125.526 123.08 127.15 122.484 128.201 123.261C129.58 124.281 129.056 126.829 128.982 127.186C128.31 130.431 125.186 131.534 118.828 135.82C115.656 137.959 113.075 139.713 110.235 142.492C107.224 145.44 103.225 149.349 104.154 152.85C104.396 153.76 104.99 155.165 107.892 156.621C115.703 160.546 124.295 160.153 130.154 158.191C136.012 156.229 149.291 149.949 148.12 129.148C143.57 118.787 140.429 116.161 138.356 115.804C137.18 115.6 135.489 115.145 132.107 114.234C131.275 114.01 130.126 113.693 130.154 113.449C130.185 113.163 131.829 113.088 132.497 113.057C133.153 113.025 133.696 113.041 134.059 113.057C135.45 113.104 142.578 113.5 147.729 119.336C152.002 124.179 152.482 129.831 152.416 131.895C152.365 133.548 151.924 136.99 151.01 140.6C151.01 140.6 150.92 140.95 150.842 141.248C150.065 144.121 146.518 155.44 135.301 161.299C130.919 163.588 127.107 164.141 124.69 164.471C122.159 164.816 105.529 167.077 101.233 158.56C98.6003 153.344 101.928 146.731 103.209 144.455C106.947 141.291 110.829 137.798 114.777 133.956C118.523 130.314 121.952 126.73 125.08 123.261H125.076Z" fill="#E36730"/>
<path d="M95.3942 127.578C95.3942 127.578 92.2697 121.69 86.4113 121.69C80.5528 121.69 78.2095 125.615 78.2095 128.362C78.2095 131.11 88.7546 132.68 88.7546 132.68C88.7546 132.68 98.5187 131.11 95.3942 127.578Z" fill="#FFB96C"/>
<path d="M99.6907 114.234C99.6907 114.234 92.6606 116.589 94.6135 127.971C96.5663 139.352 113.36 127.186 113.36 127.186C113.36 127.186 115.919 119.952 113.079 117.291C110.24 114.63 106.721 110.309 99.6907 114.234Z" fill="#FFB96C"/>
<path d="M61.4155 118.552C61.4155 118.552 63.3683 105.208 73.5229 107.171C83.6775 109.133 80.9436 119.337 80.9436 119.337C80.9436 119.337 78.6002 127.187 76.2569 127.579C73.9135 127.972 62.47 124.216 62.47 124.216L61.4155 118.552Z" fill="#FFB96C"/>
<path d="M70.0079 74.2012C70.0079 74.2012 71.5702 74.9861 73.1324 79.3033C74.6947 83.6205 75.4758 86.3678 74.6947 90.2926C74.6947 90.685 61.025 103.637 61.025 103.637C61.025 103.637 56.3383 85.9754 70.0079 74.2012Z" fill="#FE7C31"/>
<path d="M112.188 95.7875L123.123 110.309C123.123 110.309 128.591 84.7983 121.952 79.6962C121.561 79.6962 112.969 78.5187 112.188 95.7875Z" fill="#FE7C31"/>
<path d="M61.8061 118.551C61.8061 118.551 62.9778 106.384 73.1324 107.169C83.2869 107.954 80.9436 120.121 80.9436 120.121C80.9436 120.121 79.7719 127.185 74.6946 128.363C69.6173 129.54 58.6816 124.046 61.8061 118.551Z" fill="#FFBE70"/>
<path d="M100.081 113.451C99.2375 114 95.3866 116.63 94.6133 121.3C94.1212 124.283 95.0273 127.203 95.7849 127.972C95.8084 127.996 95.9802 128.168 96.9566 129.149C96.9723 129.165 97.7221 129.919 97.7378 129.934C100.601 130.197 103.467 130.456 106.33 130.719C110.56 129.514 113.684 126.359 114.29 122.595C114.692 120.087 113.864 118.003 113.36 116.983C112.77 116.119 111.939 115.17 110.779 114.377C106.357 111.351 100.94 113.152 100.081 113.451Z" fill="#FFBE70"/>
<path d="M55.1661 113.842C54.7404 113.802 52.1276 113.59 50.7528 115.309C50.1084 116.114 49.7217 117.236 50.0888 119.336C51.2605 126.008 55.8301 136.036 72.097 139.462C72.097 139.462 83.6771 143.277 94.6128 142.1C105.549 140.922 113.75 140.53 121.562 131.503C122.909 130.467 123.948 129.497 124.686 128.755C126.276 127.158 126.533 126.546 126.639 126.008C126.928 124.548 126.158 123.339 126.084 123.229C124.862 121.373 122.249 121.322 121.171 121.299C119.335 121.263 118.129 121.754 115.313 122.868C111.149 124.517 109.068 125.341 108.282 125.616C106.185 126.346 103.072 127.142 98.909 127.186C96.3938 127.366 93.7887 127.5 91.0978 127.578C87.2898 127.688 83.6381 127.68 80.1621 127.578C78.8966 127.715 77.2992 127.774 75.4753 127.578C73.4132 127.354 71.6947 126.872 70.398 126.401C69.777 126.283 68.7303 125.992 67.6641 125.223C66.922 124.686 66.4182 124.097 66.1019 123.653C64.7232 121.809 63.4109 120.423 62.5868 119.336C61.9072 118.437 60.8918 117.287 59.4623 116.196C57.8493 114.964 56.2988 114.254 55.1661 113.842Z" fill="#FEE2AB"/>
<path d="M125.467 124.439C125.467 124.439 125.432 124.486 125.358 124.576C124.463 125.695 118.101 133.336 109.064 136.605C108.673 136.605 100.081 140.53 90.3167 140.138C80.5526 139.745 78.9904 139.353 78.9904 139.353C78.9904 139.353 66.883 136.213 64.5396 134.25C62.1962 132.288 50.4794 125.224 51.2605 116.982C51.2605 116.982 51.2605 116.958 51.2527 116.954C51.198 116.942 50.9051 118.022 50.87 118.159C50.3974 119.957 51.0106 122.304 51.2605 123.261C51.4089 123.834 51.6511 124.655 52.0417 125.616C54.4202 129.898 57.2478 132.461 59.0718 133.858C61.8916 136.017 64.4967 137.061 67.2735 138.175C70.9526 139.651 74.1357 140.361 76.647 140.923C78.9084 141.429 80.3652 141.633 80.9432 141.707C81.9821 141.845 82.2164 141.837 85.2394 142.1C88.977 142.426 89.0395 142.473 89.9261 142.492C91.3985 142.524 92.621 142.383 95.0034 142.1C102.471 141.213 104.021 141.005 106.33 140.53C107.579 140.275 108.954 139.961 110.626 139.353C111.348 139.09 112.622 138.623 114.141 137.783C115.719 136.911 116.75 136.083 118.047 135.035C121.526 132.221 120.62 132.088 122.733 130.718C122.733 130.718 125.858 128.689 125.858 127.578V126.401C125.858 126.201 125.784 125.706 125.467 124.439Z" fill="#F3C993"/>
<path d="M69.2262 116.196C69.2262 116.196 71.9601 118.944 75.4752 117.766C75.7447 117.711 76.0649 117.707 76.3344 117.864C77.2718 118.418 76.9749 120.561 76.6469 121.691C76.3657 122.66 75.7173 124.882 73.5224 125.616C71.0501 126.444 68.9489 124.544 68.8356 124.438C67.5507 123.241 67.3281 121.718 67.2734 121.298C66.9063 118.469 68.9684 116.44 69.2262 116.196Z" fill="#642843"/>
<path d="M100.081 120.513C100.081 120.513 102.034 122.476 104.377 122.476C106.72 122.476 107.111 121.298 107.892 120.906C108.673 120.513 109.064 124.045 109.064 124.045C109.064 124.045 107.502 128.755 103.987 128.363C100.472 127.97 97.7376 125.223 100.081 120.513Z" fill="#642843"/>
<path d="M86.8021 126.009H85.2399C83.9456 126.009 82.8965 127.064 82.8965 128.364C82.8965 129.665 83.9456 130.719 85.2399 130.719H86.8021C88.0963 130.719 89.1455 129.665 89.1455 128.364C89.1455 127.064 88.0963 126.009 86.8021 126.009Z" fill="#642843"/>
<path d="M101.253 144.454L82.5063 145.239C82.5063 145.239 77.429 145.239 62.1971 139.745C46.9652 134.25 53.2142 136.997 53.2142 136.997C53.2142 136.997 42.2785 125.615 37.2012 126.008C32.1239 126.4 28.6088 132.288 32.5144 138.567C33.2955 139.745 37.3847 145.239 37.3847 145.239C37.3847 145.239 39.9351 169.18 53.2142 169.572C68.5945 170.028 80.7175 170.043 128.593 169.965C129.256 169.965 129.803 169.965 130.155 169.965C136.97 163.513 137.993 161.519 137.575 160.938C136.884 159.976 132.568 163.277 124.296 164.47C124.296 164.47 118.746 165.271 112.189 164.078C110.084 163.693 108.022 163.116 105.94 161.723C105.331 161.315 104.46 160.734 103.597 159.761C101.187 157.045 99.6754 152.366 101.253 148.771C101.941 147.202 103.714 144.964 103.206 144.454C103.038 144.285 102.69 144.364 102.425 144.454H101.253Z" fill="#E5A262"/>
<path d="M102.034 157.406C99.8822 157.277 97.7341 157.143 95.5821 157.014C95.5821 157.014 82.2366 165.648 78.7216 166.041C75.2065 166.433 52.9445 168.788 46.305 162.116C39.6654 155.444 40.056 150.342 47.4766 151.127C47.4766 151.127 32.2447 139.745 34.5881 131.896C36.9315 124.046 46.6955 138.175 46.6955 138.175C51.6713 140.703 57.6742 143.242 64.6613 145.24C79.2957 149.427 92.2194 149.522 101.253 148.772C100.968 149.757 100.62 151.429 100.862 153.482C101.066 155.209 101.608 156.551 102.034 157.406Z" fill="#FFD686"/>
<path d="M86.8021 135.035H85.2399C83.951 135.035 82.8965 134.682 82.8965 134.25C82.8965 133.818 83.951 133.465 85.2399 133.465H86.8021C88.091 133.465 89.1455 133.818 89.1455 134.25C89.1455 134.682 88.091 135.035 86.8021 135.035Z" fill="#642843"/>
<defs>
<filter id="filter0_d_143_4788" x="1.20093" y="-0.00537109" width="184.628" height="100.317" filterUnits="userSpaceOnUse" color-interpolation-filters="sRGB">
<feFlood flood-opacity="0" result="BackgroundImageFix"/>
<feColorMatrix in="SourceAlpha" type="matrix" values="0 0 0 0 0 0 0 0 0 0 0 0 0 0 0 0 0 0 127 0" result="hardAlpha"/>
<feOffset dx="2" dy="11"/>
<feColorMatrix type="matrix" values="0 0 0 0 0.341176 0 0 0 0 0.423529 0 0 0 0 0.466667 0 0 0 1 0"/>
<feBlend mode="normal" in2="BackgroundImageFix" result="effect1_dropShadow_143_4788"/>
<feBlend mode="normal" in="SourceGraphic" in2="effect1_dropShadow_143_4788" result="shape"/>
</filter>
</defs>
</svg>
